<svg width="52" height="52" viewBox="0 0 52 52" fill="none" xmlns="http://www.w3.org/2000/svg">
<path opacity="0.1" d="M1 26C1 5.4125 5.4125 1 26 1C46.5875 1 51 5.4125 51 26C51 46.5875 46.5875 51 26 51C5.4125 51 1 46.5875 1 26Z" fill="#519A45"/>
<path d="M1 26C1 5.4125 5.4125 1 26 1C46.5875 1 51 5.4125 51 26C51 46.5875 46.5875 51 26 51C5.4125 51 1 46.5875 1 26Z" stroke="#519A45" strokeWidth="2"/>
<path d="M17.6665 25.9999L22.3409 30.6743C22.8276 31.161 23.6165 31.161 24.1032 30.6743L34.3332 20.4443" stroke="#519A45" strokeWidth="2" strokeLinecap="round" strokeLinejoin="round"/>
</svg>
