<svg width="22" height="22" viewBox="0 0 22 22" fill="none" xmlns="http://www.w3.org/2000/svg">
<path d="M11 11C12.6569 11 14 9.65685 14 8C14 6.34315 12.6569 5 11 5C9.34315 5 8 6.34315 8 8C8 9.65685 9.34315 11 11 11Z" stroke="#1C274C" strokeWidth="1.5"/>
<path d="M16.9691 19C16.81 16.1085 15.9247 14 10.9999 14C6.07521 14 5.18991 16.1085 5.03076 19" stroke="#1C274C" strokeWidth="1.5" strokeLinecap="round"/>
<path d="M6 2.33782C7.47087 1.48697 9.1786 1 11 1C16.5228 1 21 5.47715 21 11C21 16.5228 16.5228 21 11 21C5.47715 21 1 16.5228 1 11C1 9.1786 1.48697 7.47087 2.33782 6" stroke="#1C274C" strokeWidth="1.5" strokeLinecap="round"/>
</svg>
